<?xml version="1.0" encoding="UTF-8"?>
<svg id="Layer_2" data-name="Layer 2" xmlns="http://www.w3.org/2000/svg" xmlns:xlink="http://www.w3.org/1999/xlink" viewBox="0 0 830.09 179.71">
  <defs>
    <style>
      .cls-1 {
        clip-path: url(#clippath);
      }

      .cls-2 {
        fill: none;
      }

      .cls-2, .cls-3 {
        stroke-width: 0px;
      }

      .cls-3 {
        fill: #f9f7e9;
      }

      .cls-4 {
        clip-path: url(#clippath-1);
      }
    </style>
    <clipPath id="clippath">
      <rect class="cls-2" width="179.71" height="179.71"/>
    </clipPath>
    <clipPath id="clippath-1">
      <rect class="cls-2" x="196.82" width="633.26" height="179.71"/>
    </clipPath>
  </defs>
  <g id="Layer_1-2" data-name="Layer 1">
    <g>
      <g class="cls-1">
        <path class="cls-3" d="M89.85,4.34c-9.16,0-17.72,3.75-26,7.37-1.81.79-3.61,1.58-5.4,2.32-1.75.73-3.53,1.43-5.3,2.14-8.59,3.41-17.47,6.93-23.76,13.22-6.29,6.29-9.81,15.17-13.22,23.76-.71,1.78-1.41,3.55-2.14,5.3-.74,1.79-1.53,3.59-2.32,5.41-3.62,8.28-7.37,16.84-7.37,26s3.75,17.72,7.37,26c.79,1.82,1.58,3.62,2.32,5.41.73,1.75,1.43,3.53,2.14,5.31,3.41,8.59,6.93,17.47,13.22,23.76,6.29,6.29,15.17,9.81,23.76,13.22,1.78.71,3.55,1.41,5.3,2.14,1.79.74,3.59,1.53,5.4,2.32,8.28,3.62,16.85,7.37,26,7.37s17.72-3.75,26-7.37c1.81-.79,3.61-1.58,5.4-2.32,1.75-.73,3.53-1.43,5.31-2.14,8.59-3.41,17.47-6.93,23.76-13.22,6.29-6.29,9.81-15.17,13.22-23.76.71-1.78,1.41-3.56,2.14-5.31.74-1.79,1.53-3.59,2.32-5.41,3.62-8.28,7.37-16.84,7.37-26s-3.74-17.72-7.37-26c-.79-1.82-1.58-3.62-2.32-5.41-.73-1.75-1.43-3.53-2.14-5.3-3.41-8.59-6.93-17.47-13.22-23.76-6.29-6.29-15.17-9.81-23.76-13.22-1.78-.71-3.55-1.41-5.3-2.14-1.79-.74-3.59-1.53-5.4-2.32-8.28-3.62-16.85-7.37-26-7.37h0ZM89.85,179.71c-10.06,0-19.05-3.93-27.74-7.73-1.79-.78-3.56-1.56-5.33-2.29-1.73-.72-3.48-1.41-5.24-2.11-9-3.57-18.31-7.26-25.23-14.18-6.92-6.92-10.61-16.23-14.18-25.23-.7-1.76-1.39-3.51-2.11-5.24-.73-1.76-1.51-3.54-2.29-5.33-3.8-8.69-7.73-17.68-7.73-27.74s3.93-19.05,7.73-27.74c.78-1.79,1.56-3.56,2.29-5.33.72-1.73,1.41-3.48,2.11-5.24,3.57-9,7.26-18.31,14.18-25.23,6.92-6.92,16.23-10.61,25.23-14.19,1.76-.7,3.51-1.39,5.24-2.11,1.77-.73,3.54-1.51,5.33-2.29C70.8,3.93,79.79,0,89.85,0s19.05,3.93,27.74,7.73c1.79.78,3.56,1.56,5.33,2.29,1.73.72,3.48,1.41,5.24,2.11,9,3.57,18.31,7.26,25.23,14.19,6.92,6.92,10.61,16.23,14.18,25.23.7,1.76,1.39,3.51,2.11,5.24.73,1.77,1.51,3.54,2.29,5.33,3.8,8.69,7.73,17.67,7.73,27.73s-3.93,19.05-7.73,27.74c-.78,1.79-1.56,3.56-2.29,5.33-.72,1.73-1.41,3.49-2.11,5.24-3.57,9-7.26,18.3-14.18,25.22-6.92,6.92-16.23,10.61-25.23,14.18-1.76.7-3.51,1.39-5.24,2.11-1.76.73-3.54,1.51-5.33,2.29-8.69,3.8-17.68,7.73-27.74,7.73h0ZM89.85,10.51c-8.51,0-16.48,3.39-24.17,6.72-1.69.73-3.36,1.46-5.02,2.15-1.63.67-3.27,1.33-4.92,1.99-7.96,3.19-16.15,6.54-21.99,12.38-5.84,5.84-9.19,14.03-12.38,21.99-.66,1.65-1.32,3.29-1.99,4.92-.69,1.66-1.42,3.33-2.15,5.02-3.33,7.69-6.72,15.66-6.72,24.18s3.39,16.47,6.72,24.17c.73,1.69,1.46,3.36,2.15,5.02.67,1.63,1.33,3.27,1.99,4.92,3.19,7.96,6.54,16.15,12.38,21.99,5.84,5.84,14.03,9.19,21.99,12.38,1.65.66,3.29,1.32,4.91,1.99,1.66.69,3.33,1.41,5.02,2.15,7.7,3.33,15.67,6.73,24.18,6.73s16.48-3.39,24.17-6.72c1.69-.73,3.36-1.46,5.02-2.15,1.63-.68,3.27-1.33,4.92-1.99,7.96-3.19,16.15-6.54,21.99-12.38,5.84-5.84,9.19-14.03,12.38-21.99.66-1.65,1.32-3.29,1.99-4.92.69-1.66,1.42-3.33,2.15-5.02,3.33-7.69,6.72-15.66,6.72-24.17s-3.39-16.47-6.72-24.16c-.73-1.69-1.46-3.36-2.15-5.03-.67-1.63-1.33-3.27-1.99-4.92-3.19-7.96-6.54-16.15-12.38-21.99-5.84-5.84-14.03-9.19-21.99-12.38-1.64-.66-3.29-1.32-4.91-1.99-1.66-.69-3.33-1.41-5.02-2.15-7.7-3.33-15.67-6.73-24.18-6.73h0ZM89.85,6.49c9.34,0,17.7,3.56,25.78,7.06,1.66.72,3.31,1.44,4.95,2.12,1.61.67,3.23,1.32,4.86,1.97,8.35,3.35,16.93,6.85,23.36,13.28s9.93,15.01,13.28,23.35c.65,1.63,1.3,3.25,1.96,4.86.68,1.64,1.4,3.29,2.12,4.95,3.5,8.08,7.06,16.45,7.06,25.79s-3.56,17.7-7.06,25.78c-.72,1.66-1.44,3.31-2.12,4.95-.67,1.61-1.32,3.24-1.97,4.86-3.35,8.35-6.85,16.93-13.27,23.35-6.42,6.42-15.01,9.93-23.35,13.27-1.63.65-3.25,1.3-4.86,1.97-1.64.68-3.29,1.4-4.95,2.12-8.08,3.5-16.45,7.06-25.79,7.06s-17.7-3.56-25.78-7.06c-1.66-.72-3.31-1.44-4.95-2.12-1.61-.67-3.23-1.32-4.86-1.97-8.35-3.35-16.93-6.85-23.36-13.28-6.42-6.42-9.93-15.01-13.28-23.36-.65-1.63-1.3-3.25-1.97-4.86-.68-1.64-1.4-3.29-2.12-4.95-3.5-8.08-7.06-16.45-7.06-25.79s3.56-17.7,7.06-25.78c.72-1.66,1.44-3.31,2.12-4.95.67-1.61,1.32-3.23,1.97-4.86,3.35-8.35,6.85-16.93,13.28-23.36,6.42-6.42,15.01-9.93,23.35-13.28,1.63-.65,3.25-1.3,4.86-1.97,1.64-.68,3.29-1.4,4.95-2.12,8.08-3.5,16.45-7.06,25.79-7.06h0ZM89.85,16.69c-7.86,0-15.23,3.04-22.33,6.08-1.56.67-3.1,1.33-4.64,1.97-1.5.62-3.02,1.23-4.53,1.85-7.33,2.97-14.83,6.14-20.22,11.54-5.4,5.4-8.57,12.9-11.54,20.23-.61,1.51-1.22,3.03-1.84,4.53-.64,1.53-1.3,3.08-1.97,4.63-3.04,7.11-6.08,14.49-6.08,22.35s3.03,15.23,6.07,22.33c.67,1.56,1.33,3.11,1.97,4.64.62,1.5,1.23,3.02,1.85,4.53,2.97,7.33,6.14,14.83,11.54,20.23,5.4,5.4,12.9,8.57,20.23,11.54,1.51.61,3.03,1.22,4.53,1.85,1.53.64,3.07,1.3,4.63,1.97,7.11,3.04,14.49,6.08,22.35,6.08s15.23-3.04,22.33-6.08c1.56-.67,3.1-1.33,4.64-1.97,1.5-.62,3.02-1.23,4.53-1.85,7.33-2.97,14.83-6.14,20.22-11.54,5.4-5.4,8.57-12.89,11.54-20.22.61-1.52,1.22-3.03,1.84-4.53.64-1.53,1.3-3.08,1.97-4.63,3.04-7.11,6.08-14.49,6.08-22.35s-3.03-15.23-6.07-22.33c-.67-1.56-1.34-3.1-1.97-4.64-.62-1.5-1.23-3.02-1.85-4.53-2.97-7.33-6.14-14.83-11.54-20.23-5.4-5.4-12.9-8.57-20.23-11.54-1.51-.61-3.03-1.22-4.53-1.84-1.53-.64-3.07-1.3-4.63-1.97-7.11-3.04-14.49-6.08-22.35-6.08h0ZM89.85,12.98c8.61,0,16.36,3.19,23.83,6.39,1.53.66,3.06,1.32,4.57,1.94,1.48.61,2.98,1.22,4.48,1.82,7.69,3.12,15.56,6.44,21.48,12.37,5.92,5.92,9.25,13.79,12.36,21.48.61,1.5,1.21,2.99,1.82,4.47.63,1.51,1.29,3.03,1.94,4.57,3.2,7.47,6.39,15.22,6.39,23.84s-3.19,16.36-6.38,23.82c-.66,1.54-1.32,3.06-1.94,4.57-.61,1.49-1.22,2.98-1.83,4.48-3.12,7.69-6.44,15.56-12.36,21.48-5.92,5.92-13.79,9.25-21.48,12.37-1.5.61-2.99,1.21-4.47,1.82-1.51.63-3.03,1.28-4.56,1.94-7.47,3.2-15.22,6.39-23.84,6.39s-16.36-3.19-23.82-6.38c-1.54-.66-3.06-1.32-4.57-1.94-1.48-.61-2.98-1.22-4.48-1.82-7.69-3.12-15.56-6.44-21.48-12.36-5.92-5.92-9.25-13.79-12.37-21.48-.61-1.5-1.21-2.99-1.82-4.47-.63-1.51-1.28-3.03-1.94-4.57-3.2-7.47-6.39-15.22-6.39-23.84s3.19-16.36,6.38-23.82c.66-1.54,1.32-3.06,1.94-4.57.61-1.48,1.22-2.98,1.82-4.48,3.12-7.69,6.44-15.56,12.37-21.48,5.92-5.92,13.79-9.25,21.48-12.37,1.5-.61,2.99-1.21,4.47-1.82,1.51-.63,3.03-1.28,4.56-1.94,7.47-3.2,15.22-6.39,23.84-6.39h0ZM89.85,22.87c-7.21,0-13.99,2.68-20.5,5.43-1.43.6-2.85,1.21-4.25,1.79-1.38.57-2.76,1.13-4.15,1.7-6.7,2.76-13.5,5.74-18.46,10.7-4.95,4.95-7.94,11.76-10.7,18.46-.57,1.38-1.13,2.77-1.7,4.14-.58,1.4-1.19,2.82-1.79,4.24-2.75,6.52-5.44,13.31-5.44,20.53s2.68,13.98,5.43,20.5c.6,1.43,1.21,2.85,1.79,4.26.57,1.38,1.13,2.76,1.7,4.15,2.76,6.7,5.74,13.5,10.7,18.46,4.95,4.95,11.76,7.94,18.46,10.7,1.38.57,2.77,1.13,4.14,1.7,1.4.58,2.82,1.19,4.24,1.79,6.52,2.76,13.31,5.44,20.53,5.44s13.99-2.68,20.5-5.43c1.43-.6,2.85-1.21,4.25-1.79,1.38-.57,2.76-1.13,4.15-1.7,6.7-2.76,13.5-5.74,18.46-10.7,4.95-4.95,7.94-11.76,10.7-18.46.57-1.38,1.13-2.77,1.7-4.14.58-1.4,1.19-2.82,1.79-4.24,2.75-6.52,5.44-13.31,5.44-20.52s-2.68-13.98-5.43-20.5c-.6-1.43-1.21-2.85-1.79-4.26-.57-1.38-1.13-2.76-1.7-4.15-2.76-6.7-5.74-13.5-10.7-18.46-4.95-4.95-11.76-7.94-18.46-10.7-1.38-.57-2.76-1.13-4.14-1.7-1.4-.58-2.82-1.19-4.24-1.79-6.52-2.75-13.31-5.44-20.53-5.44h0ZM89.85,19.46c7.89,0,15.01,2.82,21.87,5.71,1.41.59,2.81,1.19,4.19,1.77,1.36.56,2.73,1.12,4.1,1.68,7.04,2.89,14.18,6.03,19.61,11.46,5.43,5.42,8.56,12.57,11.46,19.61.56,1.37,1.11,2.73,1.68,4.09.58,1.38,1.17,2.78,1.77,4.18,2.9,6.86,5.72,13.99,5.72,21.89s-2.82,15.01-5.71,21.87c-.6,1.41-1.2,2.81-1.77,4.2-.56,1.36-1.12,2.73-1.68,4.1-2.89,7.04-6.03,14.18-11.46,19.61s-12.57,8.56-19.61,11.46c-1.37.56-2.74,1.12-4.09,1.68-1.38.57-2.78,1.17-4.18,1.77-6.86,2.9-13.99,5.72-21.89,5.72s-15.01-2.82-21.87-5.71c-1.41-.6-2.81-1.19-4.19-1.77-1.36-.56-2.73-1.12-4.1-1.68-7.04-2.89-14.18-6.03-19.61-11.46s-8.56-12.57-11.46-19.61c-.56-1.37-1.11-2.73-1.68-4.09-.57-1.38-1.17-2.78-1.77-4.18-2.9-6.86-5.72-13.99-5.72-21.89s2.82-15.01,5.71-21.87c.6-1.41,1.19-2.81,1.77-4.2.56-1.36,1.12-2.73,1.68-4.1,2.89-7.04,6.03-14.19,11.46-19.61,5.42-5.42,12.57-8.56,19.61-11.46,1.37-.56,2.73-1.11,4.09-1.68,1.38-.57,2.78-1.17,4.18-1.77,6.86-2.9,14-5.72,21.89-5.72h0ZM89.85,29.05c-6.56,0-12.74,2.32-18.67,4.78-1.3.54-2.59,1.09-3.87,1.62-1.25.52-2.51,1.03-3.76,1.56-6.07,2.54-12.18,5.35-16.69,9.86-4.51,4.51-7.32,10.62-9.86,16.69-.52,1.25-1.03,2.5-1.55,3.75-.53,1.28-1.07,2.56-1.61,3.86-2.47,5.94-4.79,12.13-4.79,18.7s2.32,12.74,4.78,18.67c.54,1.3,1.09,2.59,1.62,3.87.52,1.25,1.03,2.51,1.56,3.76,2.54,6.07,5.35,12.18,9.86,16.69s10.62,7.32,16.69,9.86c1.25.52,2.5,1.04,3.75,1.55,1.27.53,2.56,1.07,3.85,1.61,5.94,2.47,12.13,4.79,18.7,4.79s12.74-2.32,18.67-4.78c1.3-.54,2.59-1.08,3.87-1.62,1.25-.52,2.51-1.04,3.76-1.56,6.07-2.54,12.18-5.35,16.69-9.86,4.51-4.51,7.32-10.62,9.86-16.69.52-1.25,1.04-2.5,1.56-3.75.53-1.28,1.07-2.56,1.61-3.86,2.46-5.94,4.79-12.13,4.79-18.7s-2.32-12.74-4.78-18.66c-.54-1.3-1.09-2.6-1.62-3.87-.52-1.25-1.03-2.51-1.56-3.76-2.54-6.07-5.35-12.18-9.86-16.69-4.51-4.51-10.62-7.32-16.69-9.86-1.25-.52-2.5-1.04-3.75-1.55-1.27-.53-2.56-1.07-3.86-1.61-5.94-2.47-12.13-4.79-18.7-4.79h0ZM89.85,25.95c7.16,0,13.67,2.45,19.91,5.04,1.28.53,2.55,1.07,3.82,1.6,1.23.51,2.48,1.02,3.72,1.54,6.38,2.67,12.81,5.62,17.74,10.55,4.93,4.92,7.88,11.35,10.55,17.74.51,1.24,1.02,2.47,1.53,3.7.52,1.26,1.06,2.52,1.59,3.8,2.6,6.25,5.05,12.76,5.05,19.94s-2.44,13.67-5.04,19.91c-.53,1.28-1.07,2.56-1.6,3.82-.51,1.24-1.02,2.48-1.54,3.72-2.67,6.38-5.62,12.81-10.55,17.73-4.92,4.93-11.35,7.88-17.73,10.55-1.24.51-2.48,1.02-3.71,1.53-1.26.52-2.52,1.06-3.8,1.59-6.25,2.6-12.77,5.05-19.95,5.05s-13.67-2.44-19.91-5.04c-1.28-.53-2.55-1.07-3.82-1.6-1.23-.51-2.48-1.02-3.72-1.54-6.38-2.67-12.81-5.62-17.74-10.55-4.93-4.92-7.88-11.35-10.55-17.74-.52-1.24-1.02-2.47-1.53-3.7-.52-1.26-1.06-2.52-1.59-3.8-2.6-6.25-5.05-12.77-5.05-19.94s2.44-13.67,5.04-19.91c.53-1.28,1.07-2.56,1.6-3.82.51-1.23,1.02-2.48,1.54-3.72,2.67-6.38,5.62-12.81,10.55-17.74,4.92-4.93,11.35-7.88,17.73-10.55,1.24-.52,2.47-1.02,3.71-1.53,1.26-.52,2.52-1.06,3.8-1.59,6.25-2.6,12.77-5.05,19.94-5.05h0ZM89.85,35.23c-5.91,0-11.49,1.97-16.83,4.13-1.17.48-2.34.96-3.49,1.44-1.12.47-2.25.94-3.38,1.41-5.44,2.32-10.86,4.95-14.92,9.02-4.06,4.06-6.69,9.48-9.02,14.92-.48,1.12-.94,2.24-1.41,3.36-.48,1.15-.96,2.3-1.44,3.47-2.18,5.35-4.15,10.95-4.15,16.88s1.97,11.49,4.13,16.83c.48,1.17.96,2.34,1.44,3.49.47,1.12.94,2.25,1.41,3.38,2.32,5.44,4.95,10.86,9.02,14.92,4.06,4.06,9.48,6.69,14.92,9.02,1.12.48,2.24.94,3.36,1.41,1.15.48,2.3.96,3.47,1.43,5.35,2.18,10.95,4.15,16.88,4.15s11.49-1.97,16.83-4.13c1.17-.48,2.34-.96,3.49-1.44,1.13-.47,2.25-.94,3.38-1.42,5.44-2.32,10.86-4.95,14.92-9.01,4.06-4.06,6.69-9.48,9.02-14.92.48-1.12.94-2.24,1.41-3.36.48-1.15.96-2.3,1.44-3.47,2.18-5.35,4.15-10.95,4.15-16.87s-1.97-11.49-4.13-16.83c-.48-1.18-.96-2.34-1.44-3.49-.47-1.12-.93-2.25-1.42-3.38-2.32-5.44-4.95-10.86-9.02-14.92-4.06-4.06-9.48-6.69-14.92-9.02-1.12-.48-2.24-.94-3.36-1.41-1.15-.47-2.3-.96-3.47-1.43-5.35-2.18-10.95-4.15-16.88-4.15h0ZM89.85,32.44c6.44,0,12.32,2.07,17.95,4.36,1.16.47,2.3.95,3.44,1.42,1.11.46,2.23.92,3.34,1.4,5.73,2.44,11.44,5.21,15.86,9.64,4.43,4.43,7.2,10.13,9.64,15.86.47,1.11.93,2.22,1.39,3.32.47,1.13.95,2.27,1.42,3.42,2.3,5.64,4.38,11.54,4.38,17.99s-2.07,12.32-4.36,17.95c-.47,1.16-.95,2.31-1.43,3.44-.46,1.11-.92,2.23-1.4,3.34-2.44,5.73-5.21,11.43-9.64,15.86-4.43,4.43-10.13,7.2-15.86,9.64-1.11.47-2.22.93-3.32,1.39-1.13.47-2.27.95-3.42,1.42-5.64,2.3-11.54,4.38-18,4.38s-12.32-2.07-17.95-4.36c-1.16-.47-2.3-.95-3.44-1.42-1.11-.46-2.23-.92-3.34-1.4-5.73-2.44-11.44-5.21-15.86-9.64-4.43-4.43-7.2-10.13-9.64-15.86-.47-1.11-.93-2.22-1.39-3.32-.47-1.13-.95-2.27-1.42-3.42-2.3-5.64-4.38-11.54-4.38-17.99s2.07-12.32,4.36-17.95c.47-1.16.95-2.3,1.42-3.44.46-1.11.92-2.23,1.4-3.34,2.44-5.73,5.21-11.44,9.64-15.86,4.43-4.43,10.13-7.2,15.86-9.64,1.11-.47,2.22-.93,3.32-1.39,1.13-.47,2.27-.95,3.42-1.42,5.64-2.3,11.54-4.38,18-4.38h0ZM89.85,41.4c-5.27,0-10.25,1.61-15,3.49-1.05.41-2.08.84-3.1,1.26-1,.41-2,.84-2.99,1.27-4.81,2.1-9.54,4.56-13.15,8.17-3.62,3.62-6.07,8.34-8.18,13.15-.43.99-.85,1.98-1.26,2.97-.42,1.02-.85,2.04-1.26,3.08-1.89,4.77-3.5,9.77-3.5,15.05s1.61,10.25,3.49,15c.41,1.05.84,2.08,1.26,3.11.41,1,.84,2,1.27,2.99,2.1,4.81,4.56,9.53,8.17,13.15,3.62,3.62,8.34,6.07,13.15,8.17.99.43,1.98.85,2.97,1.26,1.02.42,2.04.85,3.08,1.26,4.77,1.89,9.77,3.5,15.05,3.5s10.25-1.61,15-3.49c1.05-.41,2.08-.84,3.1-1.26,1-.41,2-.84,3-1.27,4.81-2.1,9.53-4.56,13.15-8.18,3.62-3.62,6.07-8.34,8.18-13.15.43-.99.85-1.98,1.26-2.97.42-1.02.85-2.04,1.26-3.08,1.89-4.77,3.5-9.77,3.5-15.05s-1.61-10.25-3.49-15c-.41-1.05-.84-2.08-1.26-3.11-.41-1-.83-2-1.27-2.99-2.1-4.81-4.56-9.54-8.18-13.15-3.62-3.62-8.34-6.07-13.15-8.18-.99-.43-1.98-.85-2.97-1.26-1.02-.42-2.04-.85-3.08-1.26-4.77-1.89-9.77-3.5-15.05-3.5h0ZM89.85,38.93c5.71,0,10.98,1.7,16,3.69,1.03.41,2.05.83,3.06,1.25.99.41,1.98.83,2.96,1.25,5.08,2.21,10.06,4.8,13.99,8.73,3.93,3.93,6.51,8.91,8.73,13.99.42.97.84,1.96,1.24,2.94.42,1,.83,2.02,1.24,3.04,2,5.03,3.71,10.31,3.71,16.04s-1.7,10.98-3.69,15.99c-.41,1.03-.83,2.05-1.25,3.06-.41.99-.83,1.98-1.25,2.96-2.21,5.08-4.8,10.06-8.73,13.99s-8.91,6.51-13.99,8.73c-.97.42-1.96.84-2.94,1.24-1,.42-2.01.83-3.03,1.24-5.03,2-10.31,3.71-16.05,3.71s-10.98-1.7-15.99-3.69c-1.03-.41-2.05-.83-3.06-1.25-.99-.41-1.98-.83-2.96-1.25-5.08-2.21-10.06-4.8-13.99-8.73-3.93-3.93-6.52-8.91-8.73-13.99-.42-.98-.84-1.96-1.24-2.94-.42-1-.84-2.01-1.24-3.04-2-5.03-3.71-10.31-3.71-16.05s1.7-10.98,3.69-15.99c.41-1.03.83-2.05,1.25-3.06.41-.99.83-1.98,1.25-2.96,2.21-5.08,4.8-10.06,8.73-13.99,3.93-3.93,8.91-6.52,13.99-8.73.97-.42,1.96-.84,2.94-1.24,1-.42,2.01-.84,3.04-1.24,5.03-2,10.31-3.71,16.05-3.71h0ZM89.85,47.58c-4.62,0-9,1.26-13.17,2.84-.92.35-1.83.72-2.72,1.09-.87.36-1.74.74-2.61,1.13-4.18,1.89-8.21,4.16-11.38,7.33-3.17,3.17-5.45,7.21-7.34,11.38-.39.85-.76,1.72-1.12,2.58-.37.89-.73,1.78-1.08,2.69-1.6,4.18-2.86,8.59-2.86,13.23s1.25,9,2.84,13.17c.35.92.72,1.83,1.09,2.72.36.87.74,1.74,1.13,2.61,1.89,4.18,4.16,8.21,7.33,11.39,3.17,3.17,7.21,5.45,11.38,7.33.85.39,1.72.76,2.58,1.12.89.37,1.79.73,2.69,1.08,4.18,1.6,8.59,2.86,13.23,2.86s9-1.26,13.17-2.84c.92-.35,1.83-.71,2.72-1.09.87-.36,1.75-.74,2.61-1.13,4.18-1.89,8.21-4.16,11.38-7.33,3.17-3.17,5.45-7.21,7.33-11.38.39-.85.76-1.72,1.12-2.58.37-.89.73-1.79,1.08-2.69,1.6-4.18,2.86-8.59,2.86-13.23s-1.25-9-2.84-13.17c-.35-.92-.71-1.83-1.09-2.72-.36-.87-.74-1.74-1.13-2.61-1.89-4.18-4.16-8.21-7.33-11.39-3.17-3.17-7.21-5.45-11.38-7.34-.86-.39-1.72-.76-2.58-1.12-.89-.37-1.79-.73-2.69-1.08-4.18-1.6-8.59-2.86-13.23-2.86h0ZM89.85,45.41c4.99,0,9.63,1.33,14.04,3.02.9.35,1.8.71,2.68,1.08.86.36,1.73.73,2.58,1.11,4.42,1.99,8.69,4.39,12.12,7.82,3.43,3.43,5.83,7.69,7.82,12.12.38.85.74,1.7,1.1,2.55.37.88.72,1.76,1.07,2.66,1.7,4.42,3.04,9.08,3.04,14.1s-1.33,9.63-3.02,14.04c-.35.9-.71,1.8-1.08,2.68-.36.87-.73,1.73-1.11,2.58-1.99,4.42-4.39,8.69-7.82,12.11-3.43,3.43-7.69,5.83-12.11,7.82-.85.38-1.7.74-2.55,1.1-.87.37-1.76.72-2.65,1.07-4.42,1.7-9.09,3.04-14.1,3.04s-9.63-1.33-14.04-3.02c-.91-.35-1.8-.71-2.68-1.08-.86-.36-1.72-.73-2.58-1.11-4.42-1.99-8.69-4.39-12.12-7.82-3.43-3.43-5.83-7.69-7.82-12.12-.38-.85-.74-1.7-1.1-2.55-.36-.87-.72-1.76-1.07-2.66-1.7-4.42-3.04-9.09-3.04-14.1s1.33-9.63,3.02-14.04c.35-.91.71-1.8,1.08-2.68.36-.86.73-1.72,1.11-2.58,1.99-4.42,4.39-8.69,7.82-12.12,3.43-3.43,7.69-5.83,12.11-7.82.85-.38,1.7-.74,2.55-1.1.87-.36,1.76-.72,2.65-1.07,4.42-1.7,9.09-3.04,14.1-3.04h0ZM89.85,53.76c-3.97,0-7.76.9-11.33,2.19-.79.29-1.57.59-2.34.91-.75.31-1.49.64-2.22.98-3.55,1.67-6.89,3.77-9.62,6.49-2.73,2.73-4.82,6.07-6.49,9.62-.34.72-.66,1.45-.97,2.19-.32.76-.62,1.53-.9,2.31-1.31,3.59-2.22,7.41-2.22,11.4s.9,7.76,2.19,11.33c.29.79.59,1.57.91,2.34.31.75.64,1.49.98,2.22,1.67,3.55,3.77,6.89,6.49,9.62,2.73,2.73,6.07,4.82,9.62,6.49.72.34,1.45.66,2.19.97.76.32,1.53.62,2.31.9,3.6,1.31,7.41,2.22,11.4,2.22s7.76-.9,11.33-2.19c.79-.29,1.57-.59,2.34-.91.75-.31,1.49-.64,2.22-.98,3.55-1.67,6.89-3.77,9.62-6.49,2.73-2.73,4.82-6.07,6.49-9.61.34-.72.66-1.46.97-2.19.32-.76.62-1.53.9-2.31,1.31-3.59,2.22-7.41,2.22-11.4s-.9-7.76-2.19-11.33c-.29-.79-.59-1.57-.91-2.34-.31-.75-.64-1.49-.98-2.22-1.67-3.55-3.76-6.89-6.49-9.62-2.73-2.73-6.07-4.82-9.62-6.49-.72-.34-1.45-.66-2.19-.97-.76-.32-1.53-.62-2.31-.9-3.59-1.31-7.41-2.22-11.4-2.22h0ZM89.85,51.9c4.26,0,8.29.96,12.08,2.34.78.28,1.55.59,2.3.9.74.31,1.47.63,2.2.97,3.77,1.76,7.31,3.98,10.24,6.91,2.93,2.93,5.15,6.47,6.91,10.24.33.72.65,1.44.96,2.17.31.75.61,1.51.89,2.27,1.4,3.81,2.37,7.86,2.37,12.15s-.96,8.29-2.34,12.08c-.28.78-.59,1.55-.9,2.31-.31.74-.63,1.48-.97,2.2-1.76,3.77-3.98,7.31-6.91,10.24-2.93,2.93-6.47,5.15-10.24,6.91-.72.33-1.44.65-2.17.95-.75.31-1.5.61-2.27.89-3.81,1.4-7.86,2.37-12.15,2.37s-8.29-.96-12.08-2.34c-.78-.28-1.55-.59-2.3-.9-.74-.31-1.47-.63-2.2-.97-3.77-1.76-7.31-3.98-10.24-6.91-2.93-2.93-5.15-6.47-6.91-10.24-.33-.72-.65-1.44-.96-2.17-.31-.75-.61-1.51-.89-2.27-1.4-3.81-2.37-7.86-2.37-12.15s.96-8.29,2.34-12.08c.28-.78.59-1.55.9-2.31.31-.74.63-1.47.97-2.2,1.76-3.77,3.98-7.31,6.91-10.24,2.93-2.93,6.47-5.15,10.24-6.91.72-.33,1.44-.65,2.17-.96.75-.31,1.5-.61,2.27-.89,3.81-1.4,7.86-2.37,12.15-2.37h0ZM89.85,59.94c-16.5,0-29.92,13.42-29.92,29.92s13.42,29.92,29.92,29.92,29.92-13.42,29.92-29.92-13.42-29.92-29.92-29.92ZM89.85,121.32c-17.35,0-31.46-14.11-31.46-31.46s14.12-31.47,31.46-31.47,31.47,14.12,31.47,31.47-14.12,31.46-31.47,31.46Z"/>
      </g>
      <g class="cls-4">
        <g>
          <path class="cls-3" d="M830.08,81.2h-6.53V13.9h6.53v67.3Z"/>
          <path class="cls-3" d="M213.37,116.5h6.36v6.27l.24.18c3.95-5.28,9.12-8.06,15.73-7.6,6.67.46,11.47,3.74,14.18,9.9,1.04-1.41,1.99-2.86,3.11-4.17,3.17-3.69,7.34-5.45,12.12-5.73,3.76-.22,7.42.27,10.7,2.3,4.06,2.5,6.07,6.38,6.94,10.85.49,2.49.72,5.06.74,7.6.08,10.28.03,20.56.03,30.83v1.49h-6.49v-1.54c0-10.49.07-20.97-.05-31.45-.03-2.56-.41-5.21-1.19-7.64-1.68-5.19-5.58-7.24-11.43-6.78-6.43.52-10.93,4.88-12.15,11.46-.38,2.06-.59,4.18-.61,6.27-.06,9.39-.03,18.78-.03,28.16v1.51h-6.49v-1.38c0-11.1.02-22.19-.01-33.27,0-2.71-.62-5.31-2.02-7.67-2.8-4.7-9.06-6.49-14.5-4.15-4.35,1.86-6.76,5.37-7.91,9.75-.55,2.09-.84,4.31-.86,6.47-.09,9.59-.04,19.18-.04,28.76v1.5h-6.41v-51.93h.02Z"/>
          <path class="cls-3" d="M623.33,81.01h-6.36v-7.52c-.27.15-.39.17-.44.25-3.47,5.76-8.83,8.14-15.31,8.43-6.08.26-11.43-1.51-15.73-5.9-3.12-3.19-5.04-7.08-6.03-11.37-1.87-8.08-1.7-16.08,1.35-23.91,3.23-8.31,10.43-13.16,19.36-13.21,4.96-.03,9.44,1.25,13.17,4.55,1.29,1.14,2.3,2.59,3.49,3.95V13.96h6.49v67.05h.01ZM617.19,55.27c-.03-4.5-.66-8.63-2.31-12.59-3.23-7.81-11.34-11.51-19-8.5-4.83,1.9-7.6,5.7-9.19,10.41-1.97,5.82-2.07,11.77-.84,17.75.91,4.4,2.77,8.31,6.3,11.25,5.73,4.78,16.32,4.93,21.64-4.2,2.59-4.44,3.34-9.34,3.4-14.13h0Z"/>
          <path class="cls-3" d="M385.27,123.66v-22.16h6.42v66.92h-6.39v-7.39c-1.34,1.48-2.42,2.96-3.75,4.12-4.16,3.65-9.19,4.74-14.57,4.38-9.64-.63-16.18-6.9-18.77-16.06-2.34-8.25-2.24-16.54.8-24.62,5.63-14.98,21.43-16.35,30.44-10.88,2.22,1.34,3.9,3.05,5.82,5.67h.01ZM385.54,142.33c0-4.99-.63-8.58-2.41-12.55-1.62-3.62-4.06-6.55-7.86-8.11-7.65-3.14-15.97.4-19.37,8.21-1.48,3.38-2.19,6.93-2.37,10.61-.24,5.38.39,10.61,2.95,15.44,2.52,4.78,6.42,7.7,11.92,8.15,6.09.49,10.65-2.12,13.74-7.26,2.66-4.45,3.43-9.39,3.4-14.49Z"/>
          <path class="cls-3" d="M807.55,36.37v-7.17h6.41v51.94h-6.38v-7.46c-2.19,3.5-5.16,5.91-8.96,7.27-9.38,3.36-21.38.9-26.47-10.6-4.6-10.41-4.57-21.1.45-31.43,3.27-6.76,8.97-10.4,16.54-11,5.58-.44,10.7.77,14.98,4.53,1.28,1.13,2.27,2.57,3.45,3.92h-.02ZM791.88,76.86c6.51-.08,10.93-3.34,13.42-8.98,3.54-8.04,3.53-16.31.5-24.51-1.57-4.27-4.39-7.57-8.79-9.25-6.95-2.63-14.83.43-18.22,7.43-4.05,8.35-4.1,17.04-.67,25.58,2.44,6.08,7.07,9.56,13.77,9.72Z"/>
          <path class="cls-3" d="M496.38,168.44h-6.36v-7.57c-.87,1.12-1.52,2.07-2.27,2.92-3.34,3.71-7.66,5.41-12.54,5.77-5.74.42-11.02-.93-15.43-4.78-3.8-3.32-6.03-7.63-7.18-12.46-1.84-7.69-1.79-15.39.95-22.87,2.95-8.09,8.55-13.22,17.4-14.16,5.87-.63,11.27.61,15.77,4.63,1.19,1.07,2.11,2.44,3.18,3.7v-7.09h6.48v51.91h0ZM458.25,142.37c0,4.76.74,9.35,2.99,13.62,3.24,6.19,9.68,9.34,16.29,7.86,5.43-1.21,8.74-4.83,10.69-9.75,2.58-6.53,2.69-13.28,1.1-20.06-.96-4.08-2.82-7.68-6.1-10.42-6.39-5.32-16.51-3.51-21.17,3.78-2.93,4.57-3.8,9.66-3.8,14.98h0Z"/>
          <path class="cls-3" d="M307.04,36.37v-7.12h6.42v51.91h-6.39v-7.58c-.88,1.15-1.53,2.16-2.35,3.03-4.36,4.58-9.89,6.01-16,5.65-4.57-.27-8.64-1.89-12.06-4.96-3.1-2.78-5.17-6.27-6.37-10.21-2.63-8.72-2.58-17.42.73-25.98,3.55-9.19,12.11-14.27,22-13.13,5.9.68,10.71,3.18,14.01,8.4h0ZM275.34,55.34c-.04,4.43.73,9.06,2.99,13.37,3.2,6.13,9.47,9.23,16.21,7.83,5.29-1.09,8.62-4.54,10.59-9.35,2.94-7.17,2.98-14.53.89-21.92-1.06-3.74-3-7.01-6.2-9.37-6.79-5.02-16.68-2.77-21.1,4.8-2.57,4.4-3.41,9.23-3.39,14.63h.01Z"/>
          <path class="cls-3" d="M679.65,56.49h-39.68c.36,6.91,1.81,13.18,7.64,17.51,6.01,4.45,15.56,3.89,21.08-1.13,1.6-1.45,2.74-3.47,4.1-7.27h6.58c-.51,3.16-1.67,5.91-3.49,8.39-3.98,5.44-9.56,7.85-16.11,8.42-4.5.4-8.89-.13-12.99-2.09-6.15-2.95-9.87-7.97-11.73-14.36-2.44-8.37-2.6-16.76.93-24.88,3.51-8.08,9.87-12.43,18.69-13.17,4.21-.36,8.3.18,12.16,1.94,4.98,2.27,8.38,6.06,10.48,11.04,1.84,4.38,2.8,10.69,2.33,15.58v.02ZM640.17,50.96h33.26c-.45-9.99-6.57-17.8-17.08-17.59-9.06.18-15.99,7.54-16.18,17.59h0Z"/>
          <path class="cls-3" d="M517.27,56.45h-39.76c0,2.93.41,5.67,1.24,8.33,1.36,4.32,3.74,7.9,7.8,10.17,6.46,3.62,17.9,2.77,22.24-5.63.43-.82.85-1.69,1.05-2.57.23-1.02.76-1.22,1.7-1.18,1.74.07,3.5.02,5.38.02-1.46,7-5.16,12.21-11.76,14.86-8.2,3.29-16.33,3.07-23.9-1.93-4.73-3.12-7.43-7.8-8.89-13.13-2.15-7.84-2.33-15.74.72-23.4,3.43-8.59,9.87-13.35,19.19-14.08,5.65-.44,10.94.63,15.6,4.01,3.39,2.46,5.68,5.74,7.19,9.61,1.85,4.73,2.23,9.67,2.19,14.89h-.01ZM510.9,51.01c-.1-7.34-3.73-13.73-9.7-16.22-6.1-2.55-12.09-2.03-17.33,2.24-4.38,3.56-5.86,8.51-6.27,13.99h33.3Z"/>
          <path class="cls-3" d="M339.68,143.76h-39.63c-.32,7.7,3.09,16.6,10.83,19.34,6.18,2.18,12.12,1.6,17.36-2.67,2.35-1.92,3.59-4.56,4.39-7.47h6.65c-.83,4.59-2.87,8.42-6.32,11.44-4.98,4.35-10.92,5.66-17.38,5.34-5.95-.29-11.09-2.36-15.2-6.75-3.05-3.26-4.92-7.14-5.91-11.43-1.68-7.24-1.74-14.45.74-21.57,3.01-8.62,10.32-14.18,19.45-14.78,6.25-.42,11.97.88,16.86,4.99,2.67,2.24,4.52,5.09,5.84,8.27,2,4.85,2.37,9.96,2.34,15.3h0ZM300.02,138.27h33.28c-.35-9.44-5.89-17.07-15.19-17.54-10.53-.53-17.35,6.17-18.09,17.54Z"/>
          <path class="cls-3" d="M554.84,142.48c.03-5.79.91-11.4,3.85-16.51,3.88-6.74,9.89-10.09,17.53-10.75,5.22-.45,10.24.31,14.85,2.95,5.3,3.05,8.48,7.78,10.06,13.52,2.24,8.15,2.21,16.32-.96,24.23-3.47,8.65-10.1,13.11-19.39,13.8-4.21.32-8.3-.18-12.19-1.85-5.89-2.53-9.63-7.04-11.77-12.96-1.46-4.01-1.99-8.18-1.98-12.43h0ZM595.9,142.55l.33-.07c-.56-3.18-.83-6.44-1.72-9.52-2.21-7.6-7.54-12.2-15.77-12.21-7.43-.01-12.83,3.7-15.47,11.29-2.11,6.08-2.17,12.33-.68,18.56,1.99,8.32,7.66,13.42,15.74,13.52,5.91.07,10.62-2.09,13.88-7.06,2.89-4.41,3.6-9.4,3.7-14.52h0Z"/>
          <path class="cls-3" d="M411.43,45.66h-6.44c-.12-1-.17-1.96-.36-2.9-1.12-5.57-5.31-8.96-11.27-9.24-3.43-.16-6.73.13-9.74,2-4.3,2.66-5.04,9.22-1.16,12.05,1.58,1.16,3.63,1.81,5.56,2.36,4.18,1.18,8.46,2.07,12.65,3.23,3.19.88,6.2,2.19,8.64,4.57,2.94,2.88,3.82,6.46,3.61,10.35-.37,7.09-5.09,11.57-11.71,13.39-6.22,1.71-12.46,1.56-18.45-.87-6.38-2.59-9.53-7.68-10.31-14.36-.08-.68-.09-1.37-.11-2.06,0-.15.06-.3.11-.5h6.38c.08.84.12,1.68.24,2.5.73,4.85,3.32,8.26,8.08,9.71,5.25,1.6,10.47,1.54,15.31-1.37,3.54-2.12,4.82-5.89,3.56-9.81-.79-2.46-2.65-3.93-4.97-4.66-3.92-1.24-7.93-2.14-11.86-3.3-3.07-.9-6.2-1.73-9.12-3.03-4.4-1.96-6.32-5.67-6.55-10.41-.35-7.17,4.07-12.12,9.84-14.08,6.42-2.17,12.82-2.05,19.04.77,5.22,2.38,7.89,6.7,8.72,12.23.16,1.11.21,2.24.32,3.42h-.01Z"/>
          <path class="cls-3" d="M533.8,81.17h-6.39V29.22h6.22v6.52l.44.28c.14-.27.23-.58.42-.81,3.67-4.71,8.64-6.87,14.5-7.15,3.75-.18,7.42.28,10.78,2.08,4.93,2.63,7.26,7.07,8.24,12.3.43,2.3.63,4.66.64,7,.07,10.08.03,20.16.03,30.24v1.47h-6.49v-1.46c0-10.24.08-20.48-.05-30.72-.03-2.56-.51-5.17-1.21-7.64-1.15-4.03-3.99-6.52-8.18-7.29-6.04-1.11-11.37.16-15.4,5.06-2.52,3.07-3.52,6.75-3.54,10.66-.05,10-.02,19.99-.02,29.99v1.43h0Z"/>
          <path class="cls-3" d="M364.11,81.17h-6.49v-1.54c0-10.4.06-20.8-.05-31.2-.03-2.32-.48-4.67-1.1-6.92-1.19-4.26-4.15-6.77-8.53-7.53-4.98-.86-9.58-.05-13.47,3.36-2.76,2.43-4.26,5.6-4.86,9.18-.26,1.63-.37,3.3-.38,4.96-.03,9.39-.02,18.77-.02,28.15v1.5h-6.4V29.21h6.39v6.06c1.07-.89,2.24-1.86,3.4-2.85,6.22-5.36,17.78-5.95,24.34-1.21,4.02,2.91,5.86,7.08,6.64,11.78.35,2.06.49,4.19.5,6.29.05,10.16.02,20.31.02,30.47v1.42h0Z"/>
          <path class="cls-3" d="M696.26,81.17h-6.41V29.21h6.27v6.81c1.27-1.29,2.34-2.59,3.61-3.66,6.41-5.32,17.23-5.89,24.04-1.28,3.75,2.54,5.68,6.3,6.58,10.59.46,2.17.74,4.41.76,6.62.08,10.44.03,20.88.03,31.32v1.5h-6.49v-1.51c0-10.36.02-20.72-.01-31.08,0-2.69-.41-5.32-1.4-7.85-1.47-3.77-4.22-5.98-8.18-6.69-4.97-.88-9.56-.13-13.49,3.28-3.39,2.95-5.07,6.82-5.15,11.17-.2,10.35-.13,20.71-.17,31.07v1.66h0Z"/>
          <path class="cls-3" d="M652.81,168.46h-6.49v-1.55c0-10.2.07-20.4-.05-30.6-.03-2.52-.45-5.1-1.14-7.52-1.3-4.55-4.53-7.01-9.25-7.64-5.25-.7-9.89.47-13.62,4.33-2.65,2.73-3.99,6.16-4.17,9.89-.21,4.54-.14,9.09-.16,13.63-.02,5.97,0,11.95,0,17.92v1.49h-6.41v-51.93h6.25v6.95c.38-.44.61-.66.81-.92,3.73-4.79,8.77-6.93,14.71-7.19,3.46-.15,6.86.26,10.01,1.79,5.12,2.47,7.71,6.83,8.73,12.18.48,2.49.71,5.07.73,7.6.08,10.04.03,20.08.03,30.11v1.43h.02Z"/>
          <path class="cls-3" d="M457.49,62.54h5.55c.37,0,.73.03,1.18.05-.25,3.54-1.13,6.84-2.95,9.81-4.53,7.43-11.3,10.46-19.87,10.04-5.86-.29-10.97-2.27-15.05-6.52-3.63-3.79-5.53-8.47-6.38-13.56-1.02-6.19-.77-12.33.94-18.41,2.61-9.24,10.3-15.43,19.9-16.05,4.84-.31,9.43.4,13.63,2.87,5.78,3.38,9.19,9.13,9.76,16.32h-6.72c-.27-2.52-.96-4.96-2.36-7.14-5.73-8.92-19.57-8.59-25.17.58-2.21,3.63-3.2,7.61-3.46,11.78-.32,5.14.04,10.21,2.11,15.03,3.88,9,13.04,11.23,19.65,8.47,5.59-2.33,8.26-6.94,9.15-12.72.02-.12.03-.23.08-.54h0Z"/>
          <path class="cls-3" d="M232.84,75.61v5.45c-4.49.56-8.93,1.04-13.01-1.54-2.52-1.6-3.58-4.14-4.07-6.92-.26-1.5-.38-3.06-.38-4.59-.03-10.56-.02-21.12-.02-31.68v-1.66h-9.35v-5.52h4.76c2.58-.01,4.32-1.44,4.45-4,.16-3.2.1-6.41.13-9.62v-1.78h6.47v15.36h10.48v5.48h-10.47v1.42c0,10.8,0,21.61.01,32.41,0,.8.09,1.63.25,2.41.65,3.22,2.76,4.93,6.24,4.99,1.45.02,2.91-.13,4.47-.21h.02Z"/>
          <path class="cls-3" d="M763.01,34.62h-10.37c-.03.53-.06.97-.06,1.39v31.81c0,.88.09,1.79.25,2.65.64,3.52,2.73,5.29,6.33,5.33,1.42.02,2.83-.12,4.42-.19,0,1.61.03,3.25-.03,4.9,0,.22-.44.57-.71.61-3.29.48-6.57.6-9.79-.43-3.78-1.21-5.71-4.01-6.44-7.71-.33-1.66-.5-3.37-.5-5.07-.04-10.57-.02-21.12-.02-31.69v-1.57h-9.23v-5.52h4.59c2.91,0,4.64-1.73,4.65-4.6v-10.55h6.48v15.11h10.44v5.53h0Z"/>
          <path class="cls-3" d="M429.01,101.49h6.49v14.9h10.6v5.52h-10.6v1.45c0,10.4,0,20.81.01,31.21,0,1.05.09,2.11.28,3.14.64,3.62,2.69,5.35,6.4,5.4,1.45.02,2.9-.14,4.4-.21v5.37c-.71.12-1.47.36-2.2.35-2.36-.03-4.75.11-7.05-.32-4.82-.88-7.5-4.27-8.06-9.68-.16-1.57-.24-3.16-.24-4.73-.02-10.12-.01-20.24-.01-30.36v-1.58h-9.23v-5.52c1.48,0,2.98-.09,4.47.02,2.97.23,4.95-2.29,4.82-4.72-.17-3.36-.04-6.74-.04-10.24h-.01Z"/>
          <path class="cls-3" d="M530.33,162.89v5.38c-3.4.69-6.78.76-10.13-.14-3.34-.9-5.53-3.05-6.46-6.35-.44-1.54-.82-3.17-.84-4.76-.11-11.16-.12-22.34-.15-33.52v-1.52h-9.2v-5.54h4.59c2.95,0,4.61-1.67,4.61-4.6v-10.31h6.49v14.89h10.61v5.48h-10.52c-.03.53-.07.96-.07,1.38,0,10.4-.01,20.81,0,31.21,0,1.09.09,2.19.29,3.26.64,3.6,2.71,5.33,6.42,5.37,1.42.01,2.84-.14,4.38-.22h0Z"/>
          <path class="cls-3" d="M247.31,81.17h-6.4V29.21h6.27v7.75c4.94-6.81,11.61-8.99,19.67-7.95v6.15c-2.04,0-4.09-.21-6.07.04-7.14.89-11.79,5.66-12.95,13.17-.32,2.03-.48,4.1-.49,6.17-.05,8.41-.02,16.82-.02,25.24v1.39h-.02Z"/>
          <path class="cls-3" d="M411.33,168.46h-6.34v-51.95h6.34v51.95Z"/>
          <path class="cls-3" d="M544.78,168.46h-6.34v-51.94h6.34v51.94Z"/>
          <path class="cls-3" d="M408.07,109.48c-2.56,0-4.68-2.09-4.66-4.61.02-2.51,2.18-4.66,4.67-4.65,2.57.02,4.62,2.08,4.63,4.66,0,2.6-2,4.6-4.64,4.6Z"/>
          <path class="cls-3" d="M546.17,105c-.03,2.62-2.04,4.52-4.74,4.48-2.6-.04-4.47-2.05-4.44-4.79.03-2.42,2.12-4.46,4.57-4.48,2.64-.01,4.65,2.06,4.62,4.77h-.01Z"/>
        </g>
      </g>
    </g>
  </g>
</svg>